<svg xmlns="http://www.w3.org/2000/svg" xmlns:xlink="http://www.w3.org/1999/xlink" style="background:#ffffff" width="1366" height="568" preserveAspectRatio="xMidYMid"  xmlns:v="https://vecta.io/nano"><style><![CDATA[.B{fill:none}.C{stroke:none}.D{fill:#ff708e}.E{fill:#e0ff77}.F{fill:#9df871}.G{fill:#de9dd6}.H{fill:#51cacc}]]></style><g transform="matrix(1 0 0 1 0 0)"><path id="A" d="M521.241 310.712c0 31.126-7.616 8.94-16.556 8.94s-16.556 22.185-16.556-8.94 7.616-8.94 16.556-8.94 16.556-22.185 16.556 8.94z" class="B C"/><circle cx="0" cy="0" r="7.723" class="E"><animateMotion begin="-9.420814679454324s" dur="10s" repeatCount="indefinite"><mpath  xlink:href="#A"/></animateMotion></circle><path id="B" d="M767.785 59.836c0 36.282-8.878 10.422-19.299 10.422s-19.299 25.861-19.299-10.422 8.878-10.422 19.299-10.422 19.299-25.861 19.299 10.422z" class="B C"/><circle cx="0" cy="0" r="6.978" class="D"><animateMotion begin="-3.6526355591887882s" dur="10s" repeatCount="indefinite"><mpath  xlink:href="#B"/></animateMotion></circle><path id="C" d="M250.348 263.04c0 30.829-7.543 8.855-16.399 8.855s-16.399 21.974-16.399-8.855 7.543-8.855 16.399-8.855 16.399-21.974 16.399 8.855z" class="B C"/><circle cx="0" cy="0" r="7.447" class="G"><animateMotion begin="-5.330072440358209s" dur="10s" repeatCount="indefinite"><mpath  xlink:href="#C"/></animateMotion></circle><path id="D" d="M880.227 224.3c0 36.03-8.816 10.349-19.165 10.349s-19.165 25.681-19.165-10.349 8.816-10.349 19.165-10.349 19.165-25.681 19.165 10.349z" class="B C"/><circle cx="0" cy="0" r="4.465" class="F"><animateMotion begin="-1.456907840714392s" dur="10s" repeatCount="indefinite"><mpath  xlink:href="#D"/></animateMotion></circle><path id="E" d="M599.328 190.825c0 33.302-8.148 9.566-17.714 9.566s-17.714 23.737-17.714-9.566 8.148-9.566 17.714-9.566 17.714-23.737 17.714 9.566z" class="B C"/><circle cx="0" cy="0" r="6.492" class="F"><animateMotion begin="-2.363674665508706s" dur="10s" repeatCount="indefinite"><mpath  xlink:href="#E"/></animateMotion></circle><path id="F" d="M521.777 478.109c0 34.066-8.335 9.785-18.12 9.785s-18.12 24.281-18.12-9.785 8.335-9.785 18.12-9.785 18.12-24.281 18.12 9.785z" class="B C"/><circle cx="0" cy="0" r="6.058" class="D"><animateMotion begin="-5.870949110133208s" dur="10s" repeatCount="indefinite"><mpath  xlink:href="#F"/></animateMotion></circle><path id="G" d="M720.951 395.646c0 22.86-5.593 6.566-12.159 6.566s-12.159 16.293-12.159-6.566 5.593-6.566 12.159-6.566 12.159-16.293 12.159 6.566z" class="B C"/><circle cx="0" cy="0" r="5.093" class="D"><animateMotion begin="-0.9183420258680552s" dur="10s" repeatCount="indefinite"><mpath  xlink:href="#G"/></animateMotion></circle><path id="H" d="M720.151 215.456c0 20.709-5.067 5.948-11.015 5.948s-11.015 14.761-11.015-5.948 5.067-5.948 11.015-5.948 11.015-14.761 11.015 5.948z" class="B C"/><circle cx="0" cy="0" r="6.832" class="D"><animateMotion begin="-9.368149095563393s" dur="10s" repeatCount="indefinite"><mpath  xlink:href="#H"/></animateMotion></circle><path id="I" d="M346.211 310.467c0 33.892-8.293 9.735-18.027 9.735s-18.027 24.157-18.027-9.735 8.293-9.735 18.027-9.735 18.027-24.157 18.027 9.735z" class="B C"/><circle cx="0" cy="0" r="7.062" class="G"><animateMotion begin="-1.233609539342393s" dur="10s" repeatCount="indefinite"><mpath  xlink:href="#I"/></animateMotion></circle><path id="J" d="M360.918 266.268c0 24.604-6.02 7.067-13.087 7.067s-13.087 17.537-13.087-7.067 6.02-7.067 13.087-7.067 13.087-17.537 13.087 7.067z" class="B C"/><circle cx="0" cy="0" r="4.973" class="G"><animateMotion begin="-9.069605913443537s" dur="10s" repeatCount="indefinite"><mpath  xlink:href="#J"/></animateMotion></circle><path id="K" d="M427.25 248.453c0 36.379-8.901 10.449-19.351 10.449s-19.351 25.93-19.351-10.449 8.901-10.449 19.351-10.449 19.351-25.93 19.351 10.449z" class="B C"/><circle cx="0" cy="0" r="4.091" class="D"><animateMotion begin="-2.554327710398021s" dur="10s" repeatCount="indefinite"><mpath  xlink:href="#K"/></animateMotion></circle><path id="L" d="M161.807 431.283c0 25.286-6.187 7.263-13.45 7.263s-13.45 18.023-13.45-7.263 6.187-7.263 13.45-7.263 13.45-18.023 13.45 7.263z" class="B C"/><circle cx="0" cy="0" r="5.066" class="F"><animateMotion begin="-2.2944208465842064s" dur="10s" repeatCount="indefinite"><mpath  xlink:href="#L"/></animateMotion></circle><path id="M" d="M1132.084 385.829c0 29.07-7.113 8.35-15.463 8.35s-15.463 20.72-15.463-8.35 7.113-8.35 15.463-8.35 15.463-20.72 15.463 8.35z" class="B C"/><circle cx="0" cy="0" r="6.568" class="E"><animateMotion begin="-2.6104405436028166s" dur="10s" repeatCount="indefinite"><mpath  xlink:href="#M"/></animateMotion></circle><path id="N" d="M882.619 367.036c0 24.001-5.873 6.894-12.766 6.894s-12.766 17.107-12.766-6.894 5.873-6.894 12.766-6.894 12.766-17.107 12.766 6.894z" class="B C"/><circle cx="0" cy="0" r="7.924" class="D"><animateMotion begin="-2.008519426335096s" dur="10s" repeatCount="indefinite"><mpath  xlink:href="#N"/></animateMotion></circle><path id="O" d="M151.029 312.28c0 24.868-6.085 7.143-13.227 7.143s-13.227 17.725-13.227-7.143 6.085-7.143 13.227-7.143 13.227-17.725 13.227 7.143z" class="B C"/><circle cx="0" cy="0" r="4.23" class="E"><animateMotion begin="-7.727800980586461s" dur="10s" repeatCount="indefinite"><mpath  xlink:href="#O"/></animateMotion></circle><path id="P" d="M73.716 409.183c0 21.274-5.205 6.111-11.316 6.111s-11.316 15.163-11.316-6.111 5.205-6.111 11.316-6.111 11.316-15.163 11.316 6.111z" class="B C"/><circle cx="0" cy="0" r="4.644" class="F"><animateMotion begin="-7.018980980245582s" dur="10s" repeatCount="indefinite"><mpath  xlink:href="#P"/></animateMotion></circle><path id="Q" d="M603.708 259.646c0 36.062-8.824 10.358-19.182 10.358s-19.182 25.704-19.182-10.358 8.824-10.358 19.182-10.358 19.182-25.704 19.182 10.358z" class="B C"/><circle cx="0" cy="0" r="4.562" class="H"><animateMotion begin="-1.4730694704870517s" dur="10s" repeatCount="indefinite"><mpath  xlink:href="#Q"/></animateMotion></circle><path id="R" d="M1025.501 202.342c0 29.371-7.186 8.436-15.623 8.436s-15.623 20.935-15.623-8.436 7.186-8.436 15.623-8.436 15.623-20.935 15.623 8.436z" class="B C"/><circle cx="0" cy="0" r="7.925" class="G"><animateMotion begin="-6.431134061316904s" dur="10s" repeatCount="indefinite"><mpath  xlink:href="#R"/></animateMotion></circle><path id="S" d="M644.048 305.092c0 21.605-5.286 6.206-11.492 6.206s-11.492 15.399-11.492-6.206 5.286-6.206 11.492-6.206 11.492-15.399 11.492 6.206z" class="B C"/><circle cx="0" cy="0" r="5.35" class="E"><animateMotion begin="-3.752549438944679s" dur="10s" repeatCount="indefinite"><mpath  xlink:href="#S"/></animateMotion></circle><path id="T" d="M786.004 551.851c0 29.907-7.318 8.59-15.908 8.59s-15.908 21.317-15.908-8.59 7.318-8.59 15.908-8.59 15.908-21.317 15.908 8.59z" class="B C"/><circle cx="0" cy="0" r="4.92" class="H"><animateMotion begin="-2.512551746255305s" dur="10s" repeatCount="indefinite"><mpath  xlink:href="#T"/></animateMotion></circle><path id="U" d="M740.498 229.759c0 36.16-8.848 10.386-19.234 10.386s-19.234 25.774-19.234-10.386 8.848-10.386 19.234-10.386 19.234-25.774 19.234 10.386z" class="B C"/><circle cx="0" cy="0" r="7.768" class="E"><animateMotion begin="-3.723373109465362s" dur="10s" repeatCount="indefinite"><mpath  xlink:href="#U"/></animateMotion></circle><path id="V" d="M909.713 26.834c0 22.86-5.594 6.566-12.16 6.566s-12.16 16.294-12.16-6.566 5.594-6.566 12.16-6.566 12.16-16.294 12.16 6.566z" class="B C"/><circle cx="0" cy="0" r="5.109" class="E"><animateMotion begin="-8.432633237022714s" dur="10s" repeatCount="indefinite"><mpath  xlink:href="#V"/></animateMotion></circle><path id="W" d="M1320.846 35.602c0 19.696-4.819 5.657-10.476 5.657s-10.476 14.038-10.476-5.657 4.819-5.657 10.476-5.657 10.476-14.038 10.476 5.657z" class="B C"/><circle cx="0" cy="0" r="4.207" class="D"><animateMotion begin="-6.224216703670617s" dur="10s" repeatCount="indefinite"><mpath  xlink:href="#W"/></animateMotion></circle><path id="X" d="M1189.198 423.87c0 25.577-6.258 7.347-13.605 7.347s-13.605 18.231-13.605-7.347 6.258-7.347 13.605-7.347 13.605-18.231 13.605 7.347z" class="B C"/><circle cx="0" cy="0" r="7.635" class="F"><animateMotion begin="-0.8897328904052015s" dur="10s" repeatCount="indefinite"><mpath  xlink:href="#X"/></animateMotion></circle><path id="Y" d="M457.766 323.026c0 33.964-8.31 9.755-18.066 9.755s-18.066 24.208-18.066-9.755 8.31-9.755 18.066-9.755 18.066-24.208 18.066 9.755z" class="B C"/><circle cx="0" cy="0" r="7.347" class="D"><animateMotion begin="-6.0279504662072s" dur="10s" repeatCount="indefinite"><mpath  xlink:href="#Y"/></animateMotion></circle><path id="Z" d="M77.821 81.208c0 37.326-9.133 10.721-19.854 10.721s-19.854 26.604-19.854-10.721 9.133-10.721 19.854-10.721 19.854-26.604 19.854 10.721z" class="B C"/><circle cx="0" cy="0" r="7.806" class="D"><animateMotion begin="-2.922559237763722s" dur="10s" repeatCount="indefinite"><mpath  xlink:href="#Z"/></animateMotion></circle><path id="a" d="M118.689 326.424c0 19.026-4.655 5.465-10.12 5.465s-10.12 13.561-10.12-5.465 4.655-5.465 10.12-5.465 10.12-13.561 10.12 5.465z" class="B C"/><circle cx="0" cy="0" r="4.234" class="F"><animateMotion begin="-0.6390912113464053s" dur="10s" repeatCount="indefinite"><mpath  xlink:href="#a"/></animateMotion></circle><path id="b" d="M550.171 170.399c0 30.494-7.461 8.759-16.22 8.759s-16.22 21.735-16.22-8.759 7.461-8.759 16.22-8.759 16.22-21.735 16.22 8.759z" class="B C"/><circle cx="0" cy="0" r="7.18" class="E"><animateMotion begin="-1.0591139813293693s" dur="10s" repeatCount="indefinite"><mpath  xlink:href="#b"/></animateMotion></circle><path id="c" d="M372.767 318.878c0 34.251-8.38 9.838-18.218 9.838s-18.218 24.413-18.218-9.838 8.38-9.838 18.218-9.838 18.218-24.413 18.218 9.838z" class="B C"/><circle cx="0" cy="0" r="4.504" class="H"><animateMotion begin="-2.2349500133530187s" dur="10s" repeatCount="indefinite"><mpath  xlink:href="#c"/></animateMotion></circle><path id="d" d="M841.892 410.925c0 22.526-5.512 6.47-11.982 6.47s-11.982 16.055-11.982-6.47 5.512-6.47 11.982-6.47 11.982-16.055 11.982 6.47z" class="B C"/><circle cx="0" cy="0" r="4.789" class="G"><animateMotion begin="-5.982865955384344s" dur="10s" repeatCount="indefinite"><mpath  xlink:href="#d"/></animateMotion></circle></g></svg>